<?xml version="1.0" encoding="UTF-8" ?>
<!DOCTYPE svg PUBLIC "-//W3C//DTD SVG 1.1//EN" "http://www.w3.org/Graphics/SVG/1.1/DTD/svg11.dtd">
<svg width="1429pt" height="745pt" viewBox="0 0 1429 745" version="1.1" xmlns="http://www.w3.org/2000/svg">
<g id="#fbe134fe">
<path fill="#fbe134" opacity="1.00" d=" M 115.14 9.21 C 118.64 5.20 124.19 3.47 129.40 3.71 C 128.82 8.45 126.29 12.65 123.59 16.47 C 121.89 18.97 118.45 19.40 116.85 22.00 C 112.92 27.60 112.57 34.73 109.81 40.84 C 108.78 43.51 105.56 44.04 103.06 43.49 C 101.17 42.94 100.79 40.79 100.50 39.13 C 100.14 35.86 99.54 32.11 101.67 29.29 C 102.17 29.70 103.16 30.53 103.66 30.94 C 105.11 30.31 105.47 28.52 106.09 27.21 C 108.19 20.83 110.58 14.29 115.14 9.21 Z" />
<path fill="#fbe134" opacity="1.00" d=" M 136.88 7.88 C 140.12 4.92 144.70 4.16 148.93 4.09 C 155.88 4.04 162.74 5.33 169.53 6.68 C 197.68 12.54 225.21 21.56 251.22 33.82 C 264.30 40.16 277.27 47.15 288.31 56.70 C 294.79 62.70 301.11 69.40 304.21 77.84 C 308.35 89.71 308.26 102.47 309.71 114.83 C 306.10 116.46 301.99 117.65 299.54 121.00 C 299.47 122.26 299.39 123.52 299.30 124.77 C 294.10 123.55 289.76 120.26 284.97 118.07 C 271.23 111.47 257.01 105.84 242.42 101.41 C 235.34 99.31 227.10 98.81 221.59 93.36 C 218.96 91.16 220.89 87.64 222.29 85.33 C 224.67 81.35 229.74 80.41 234.02 80.71 C 244.49 81.47 254.46 85.11 264.23 88.73 C 269.32 90.94 274.94 92.38 279.34 95.90 C 273.34 94.62 267.79 91.92 262.01 89.97 C 254.99 87.58 247.82 85.54 240.51 84.24 C 238.28 83.82 236.00 83.69 233.78 84.22 C 236.79 86.01 240.34 86.32 243.55 87.61 C 264.23 95.30 284.26 104.58 304.79 112.65 C 302.23 109.95 299.02 107.53 297.81 103.86 C 296.20 99.34 296.56 94.45 295.57 89.81 C 294.39 83.27 291.01 77.32 286.59 72.43 C 276.25 60.92 262.99 52.48 249.20 45.71 C 230.01 36.37 209.63 29.76 189.19 23.76 C 178.33 20.76 167.33 17.67 156.01 17.28 C 149.72 17.08 142.76 18.47 138.49 23.47 C 134.46 27.84 133.31 33.81 131.10 39.13 C 129.97 42.50 125.14 43.59 122.49 41.57 C 121.28 38.96 121.40 35.87 121.82 33.07 C 128.48 25.76 129.76 14.95 136.88 7.88 Z" />
<path fill="#fbe134" opacity="1.00" d=" M 93.23 12.23 C 97.09 9.31 101.67 6.87 106.58 6.61 C 106.34 10.93 104.58 15.00 103.09 19.01 C 101.88 22.42 97.75 22.98 96.02 25.95 C 93.07 30.50 91.68 35.86 90.77 41.15 C 90.44 42.77 90.09 45.06 88.03 45.24 C 85.76 45.33 82.84 45.64 81.20 43.72 C 79.68 40.92 79.60 37.57 79.63 34.46 C 80.20 34.80 81.33 35.50 81.90 35.85 C 86.42 28.35 86.44 18.40 93.23 12.23 Z" />
<path fill="#fbe134" opacity="1.00" d=" M 72.69 18.69 C 75.49 15.83 78.92 12.76 83.20 12.97 C 83.76 17.55 82.13 22.04 80.10 26.06 C 78.33 29.79 74.64 32.17 73.04 36.00 C 71.25 39.30 71.04 43.15 69.51 46.54 C 68.12 48.98 64.72 48.27 62.47 47.70 C 59.41 46.77 59.19 43.11 57.24 41.02 C 53.43 44.25 53.09 49.56 51.88 54.07 C 51.43 56.32 50.39 59.76 53.18 60.92 C 57.57 62.55 62.41 61.96 67.01 61.98 C 91.67 60.93 116.29 59.07 140.96 58.10 C 149.95 57.86 159.19 57.34 167.86 60.21 C 176.58 62.96 185.83 65.22 193.26 70.80 C 198.06 74.08 198.55 83.11 192.66 85.47 C 185.64 87.74 178.50 84.49 171.90 82.28 C 167.82 80.71 163.19 80.63 159.52 78.03 C 160.40 81.84 161.19 85.68 161.69 89.56 C 161.79 91.59 163.48 92.96 165.12 93.87 C 173.00 98.18 182.40 99.67 189.40 105.55 C 193.56 109.41 193.71 119.37 186.98 120.45 C 177.17 121.49 168.54 115.35 158.94 114.67 C 158.35 119.15 156.95 124.97 160.46 128.54 C 168.51 133.59 178.75 134.54 186.06 140.90 C 191.45 145.57 186.45 155.22 179.96 155.53 C 173.49 155.99 167.98 151.98 161.94 150.43 C 160.16 150.00 157.79 149.72 156.58 151.43 C 154.88 154.58 153.85 159.37 157.16 161.88 C 164.10 167.02 173.78 167.59 179.76 174.22 C 183.81 178.46 181.97 187.15 175.94 188.41 C 168.60 189.99 162.07 185.29 155.05 184.42 C 152.02 184.18 151.63 187.80 151.78 190.01 C 151.48 192.55 153.70 194.18 155.67 195.23 C 162.89 199.15 171.57 200.59 177.70 206.40 C 183.15 211.41 178.02 221.71 170.95 221.45 C 164.18 221.70 158.67 216.66 152.04 216.44 C 148.26 216.55 148.07 221.18 148.59 223.97 C 148.77 226.47 151.05 227.91 153.11 228.84 C 160.20 232.00 168.13 233.74 174.28 238.70 C 178.79 242.25 178.20 250.55 172.88 253.03 C 168.18 255.18 162.74 253.96 158.14 252.14 C 154.53 250.80 150.99 248.65 147.03 248.80 C 144.38 249.54 145.24 252.94 145.54 254.94 C 145.88 257.59 147.91 259.61 150.31 260.59 C 157.02 263.60 164.38 265.33 170.57 269.44 C 175.21 273.01 174.87 280.81 170.39 284.37 C 168.66 285.86 166.42 287.09 164.06 286.60 C 156.46 285.17 149.42 281.50 141.68 280.63 C 140.79 286.04 140.98 291.66 142.07 297.03 C 143.57 303.58 150.10 306.86 155.64 309.50 C 169.41 315.58 183.66 320.51 197.90 325.37 C 203.48 327.11 208.97 329.25 214.76 330.19 C 215.19 321.40 214.80 312.57 213.84 303.83 C 213.70 301.51 212.74 298.76 209.94 298.81 C 204.19 297.96 198.50 292.07 200.88 286.02 C 202.91 281.46 208.44 280.93 212.58 279.38 C 216.05 278.15 214.93 273.69 214.71 270.90 C 214.40 267.34 211.70 264.85 209.00 262.88 C 205.32 260.25 204.01 254.69 206.89 250.99 C 208.93 247.51 214.40 246.65 214.64 242.08 C 214.97 237.55 214.62 232.25 211.03 228.99 C 208.72 226.66 208.46 223.05 208.94 219.98 C 209.46 216.41 212.69 214.19 214.20 211.08 C 216.00 207.58 218.22 204.03 218.57 200.05 C 217.58 196.19 213.34 194.00 212.62 190.01 C 212.72 183.52 219.76 178.41 226.02 179.99 C 245.60 183.61 264.40 190.84 282.03 199.99 C 288.17 203.06 293.99 207.41 300.97 208.29 C 301.12 213.77 294.45 216.02 290.05 217.00 C 289.51 216.32 288.43 214.94 287.90 214.25 C 288.23 217.13 288.94 219.99 288.83 222.91 C 284.27 222.24 280.20 219.96 275.87 218.54 C 273.99 217.66 272.81 219.82 272.15 221.21 C 270.82 223.72 270.53 227.13 272.88 229.14 C 279.75 235.56 289.70 237.99 296.07 244.92 C 294.07 248.78 287.96 249.06 284.39 247.17 C 284.83 249.89 285.27 252.62 285.84 255.33 C 285.35 255.00 284.36 254.34 283.87 254.01 C 278.80 255.71 274.97 250.32 269.97 251.00 C 267.63 251.82 267.54 254.90 267.50 257.00 C 267.37 260.32 269.11 263.22 271.34 265.53 C 270.51 265.84 268.83 266.45 268.00 266.76 C 272.69 271.20 279.08 272.95 284.71 275.84 C 282.51 273.49 280.19 271.26 277.91 268.99 C 282.43 270.63 286.51 273.24 290.83 275.33 C 290.69 271.54 290.47 267.75 290.84 263.97 C 292.14 268.49 293.12 273.59 291.10 278.05 C 289.76 281.21 285.42 279.95 283.46 282.49 C 280.64 285.08 281.79 289.04 282.17 292.33 C 279.28 290.99 279.58 287.39 279.03 284.78 C 276.72 287.45 273.14 287.24 270.02 288.02 C 266.90 289.86 267.98 294.16 268.41 297.10 C 269.03 302.34 272.46 307.60 277.85 308.79 C 280.66 309.65 283.05 307.59 285.67 307.04 C 285.73 308.93 286.55 311.41 284.68 312.73 C 281.96 314.20 277.79 313.92 276.66 317.45 C 274.74 323.38 281.37 326.97 282.20 332.35 C 280.84 331.57 279.78 330.43 278.71 329.32 C 278.43 332.05 277.93 334.75 277.34 337.43 C 278.35 336.21 279.40 335.01 280.51 333.89 C 278.97 342.68 275.69 351.07 272.49 359.36 C 266.20 371.71 270.99 385.80 269.43 398.93 C 268.94 408.04 264.38 416.60 257.46 422.46 C 250.62 428.40 241.79 431.35 233.07 433.20 C 217.72 436.38 201.99 436.71 186.40 437.66 C 190.22 505.54 194.05 573.43 197.87 641.31 C 233.09 640.59 268.59 642.53 303.00 650.50 C 311.64 652.69 320.51 654.85 328.17 659.61 C 336.94 664.95 345.10 671.30 352.57 678.35 C 355.60 681.53 359.37 684.56 360.69 688.90 C 360.75 695.07 355.84 699.72 351.54 703.48 C 336.98 715.17 318.91 721.21 301.14 726.08 C 258.69 737.37 214.78 742.18 170.98 744.10 C 152.32 745.06 133.61 745.08 114.96 744.01 C 89.82 742.79 64.57 740.45 40.11 734.27 C 27.86 731.01 15.18 727.05 5.61 718.34 C 3.06 715.86 0.22 712.88 0.22 709.09 C 2.05 703.57 6.18 699.21 9.76 694.75 C 18.07 685.40 26.91 675.95 38.39 670.52 C 54.98 662.26 73.03 657.46 91.06 653.53 C 112.97 648.78 135.27 646.30 157.45 643.25 C 154.02 575.58 150.47 507.91 146.89 440.25 C 129.56 440.75 112.25 441.90 94.92 441.71 C 87.33 441.84 80.11 438.42 74.34 433.70 C 68.69 428.87 67.17 421.13 66.47 414.09 C 65.28 400.69 65.85 387.22 65.43 373.79 C 59.12 370.17 52.59 366.79 47.10 361.93 C 36.73 352.96 27.35 342.74 19.70 331.34 C 14.41 323.60 12.01 314.33 10.59 305.17 C 9.59 298.18 9.05 291.05 9.91 284.01 C 10.33 281.42 10.72 278.58 12.52 276.54 C 13.93 275.55 15.63 274.94 16.85 273.69 C 16.98 271.09 12.85 271.63 12.82 269.02 C 12.67 263.69 12.56 257.93 14.94 253.03 C 16.79 256.61 18.27 261.53 22.95 262.15 C 36.65 262.62 50.30 260.66 63.94 259.48 C 80.58 258.09 97.27 257.26 113.96 257.16 C 118.85 256.87 123.99 257.27 128.60 255.34 C 131.63 253.77 131.05 249.74 130.73 246.93 C 129.93 244.66 126.87 245.25 124.99 245.00 C 106.32 245.09 87.69 247.04 69.01 246.63 C 58.30 246.42 47.68 244.71 36.96 244.81 C 32.64 244.72 28.28 245.42 23.99 244.67 C 22.33 244.61 22.12 242.74 21.37 241.63 C 20.04 238.99 17.02 237.22 16.91 234.02 C 16.57 230.08 17.14 226.06 18.46 222.34 C 18.74 221.18 19.51 220.28 20.58 219.78 C 20.91 224.29 24.01 229.25 28.89 229.61 C 35.60 230.24 42.35 229.57 49.06 229.30 C 77.32 227.61 105.56 225.61 133.82 223.78 C 134.73 220.00 135.78 216.20 135.63 212.27 C 112.08 211.61 88.55 214.31 64.99 214.12 C 62.87 214.14 61.14 212.53 59.02 212.50 C 49.37 211.67 39.66 211.74 30.00 212.28 C 28.15 212.23 26.08 212.52 24.43 211.50 C 23.31 209.51 23.70 206.85 21.87 205.21 C 19.14 202.41 21.07 198.26 21.23 194.90 C 21.93 192.02 21.37 187.40 25.06 186.55 C 24.59 189.87 25.49 193.60 28.38 195.58 C 30.73 196.74 33.45 196.56 36.00 196.64 C 46.02 196.55 56.01 195.73 66.01 195.11 C 90.42 193.38 114.86 192.07 139.25 189.94 C 139.60 186.44 139.81 182.93 139.93 179.42 C 114.82 180.20 89.72 181.59 64.59 181.47 C 64.26 181.18 63.60 180.60 63.28 180.31 C 52.34 179.90 41.38 181.65 30.48 180.35 C 25.87 180.09 26.64 174.14 25.96 170.92 C 26.01 165.13 24.33 157.91 28.93 153.41 C 27.07 157.95 30.60 161.72 33.12 165.06 C 69.95 162.82 106.77 160.34 143.61 158.24 C 144.46 155.49 145.52 152.77 145.77 149.88 C 145.65 148.06 143.68 147.38 142.16 147.11 C 136.83 146.23 131.39 146.61 126.02 146.72 C 104.34 147.54 82.70 149.05 61.02 149.82 C 57.97 149.92 54.91 149.99 51.87 149.70 C 57.70 147.33 64.07 146.70 70.17 145.30 C 59.80 145.21 49.45 146.19 39.07 146.19 C 36.84 146.22 33.39 146.09 33.67 142.97 C 33.58 139.84 30.11 138.27 30.05 135.12 C 29.63 130.50 28.53 124.47 32.36 120.98 C 32.93 123.71 32.22 127.32 34.82 129.14 C 38.19 131.07 42.26 130.82 46.00 131.00 C 60.23 130.95 74.42 129.76 88.62 128.92 C 109.06 127.50 129.57 126.48 149.87 123.62 C 151.41 119.81 151.47 115.66 151.60 111.62 C 122.32 112.53 93.04 114.40 63.73 114.20 C 62.56 113.62 61.29 113.13 59.95 113.38 C 53.63 113.78 47.37 115.15 41.02 114.87 C 38.28 114.69 39.14 111.32 38.42 109.46 C 37.93 106.03 33.73 104.59 33.69 101.01 C 33.50 97.25 34.27 93.52 35.19 89.90 C 38.66 91.29 40.47 94.86 43.08 97.35 C 74.85 95.27 106.66 93.61 138.41 91.19 C 144.14 90.62 149.95 90.37 155.55 88.89 C 156.28 86.98 157.77 86.69 159.60 87.49 C 159.39 83.39 157.19 79.82 155.66 76.12 C 118.40 78.27 81.11 80.44 43.77 80.14 C 41.05 75.18 37.55 70.01 38.53 64.04 C 39.92 52.18 41.35 39.06 49.86 29.91 C 53.99 26.02 58.51 21.77 64.33 20.81 C 64.65 23.21 63.89 25.54 63.63 27.90 C 63.05 32.62 63.06 37.40 62.44 42.12 C 65.03 34.01 66.84 25.23 72.69 18.69 M 88.09 63.77 C 83.66 64.18 79.19 64.43 74.85 65.51 C 101.60 65.88 128.30 62.61 155.05 62.99 C 163.88 62.86 171.75 67.39 180.27 68.88 C 176.79 66.27 172.42 65.31 168.46 63.66 C 160.68 60.56 152.17 60.96 143.97 61.04 C 125.32 61.47 106.68 62.28 88.09 63.77 M 83.86 98.66 C 80.16 99.04 76.38 99.12 72.80 100.25 C 99.18 100.29 125.51 97.25 151.90 97.79 C 160.00 97.83 167.38 101.50 175.21 102.99 C 171.95 100.95 168.25 99.79 164.73 98.29 C 158.80 95.84 152.29 95.74 145.97 95.75 C 125.24 95.98 104.52 96.99 83.86 98.66 M 155.17 116.77 C 156.94 116.33 156.71 112.98 155.01 112.58 C 153.72 113.35 153.82 116.10 155.17 116.77 M 88.20 130.35 C 79.87 132.72 71.18 133.42 62.77 135.41 C 82.89 135.46 102.98 133.71 123.08 132.88 C 132.73 132.49 142.40 131.71 152.06 132.25 C 159.69 132.72 166.49 136.64 173.80 138.50 C 173.71 138.27 173.53 137.79 173.44 137.55 C 166.43 134.06 159.00 131.05 151.12 130.42 C 138.09 129.30 125.00 129.64 111.95 129.44 C 104.04 129.60 96.06 129.24 88.20 130.35 M 150.28 151.96 C 149.89 153.66 150.00 155.40 150.28 157.11 C 151.40 155.50 151.43 153.56 150.28 151.96 M 69.93 165.83 C 65.28 166.59 60.48 166.88 56.04 168.61 C 67.39 169.10 78.73 168.08 90.06 167.55 C 109.72 166.70 129.43 165.01 149.11 166.30 C 156.16 166.47 162.38 170.12 169.19 171.37 C 166.04 169.01 162.15 168.01 158.53 166.61 C 143.92 161.43 128.19 162.99 113.00 162.64 C 98.57 162.23 84.21 164.04 69.93 165.83 M 228.68 182.98 C 234.97 186.39 242.18 187.93 249.15 189.39 C 242.99 185.74 235.74 183.95 228.68 182.98 M 250.33 195.51 C 238.22 202.15 237.75 222.35 249.46 229.69 C 254.11 232.70 260.90 231.79 264.40 227.41 C 268.64 222.28 271.53 215.08 269.24 208.48 C 267.76 204.16 265.60 199.87 262.12 196.83 C 258.76 194.48 254.11 193.81 250.33 195.51 M 70.89 198.65 C 65.12 199.13 59.22 199.33 53.78 201.54 C 60.07 203.14 66.58 202.64 72.99 202.52 C 88.35 202.08 103.69 201.25 119.02 200.29 C 128.32 199.86 137.63 198.96 146.93 199.49 C 154.14 199.76 160.35 203.92 167.34 205.13 C 163.31 202.28 158.43 201.07 153.90 199.26 C 147.29 196.51 140.10 195.69 132.99 195.89 C 112.27 196.32 91.56 197.14 70.89 198.65 M 269.28 197.00 C 271.08 200.28 274.93 201.34 277.97 203.12 C 283.28 205.59 288.41 208.65 294.14 210.06 C 289.33 206.67 284.13 203.90 279.02 201.01 C 275.90 199.40 272.85 197.38 269.28 197.00 M 47.16 203.32 C 47.54 204.71 51.19 204.50 51.69 203.22 C 50.33 202.54 48.48 202.56 47.16 203.32 M 222.77 215.58 C 221.31 232.35 221.50 249.20 221.68 266.02 C 221.67 272.34 222.25 278.69 221.55 285.00 C 221.22 282.11 220.96 279.20 220.27 276.37 C 219.27 280.13 219.59 284.08 219.38 287.94 C 218.87 316.31 219.22 344.68 219.41 373.05 C 219.41 383.05 219.69 393.08 218.83 403.05 C 218.42 408.58 216.71 414.05 213.75 418.75 C 210.79 422.68 205.48 423.29 200.97 424.06 C 187.41 425.75 173.73 426.08 160.10 426.84 C 136.69 427.98 113.28 429.06 89.88 430.19 C 86.89 427.46 82.84 425.44 81.31 421.49 C 79.85 416.84 79.89 411.89 79.45 407.08 C 78.75 399.97 78.89 392.76 77.45 385.74 C 77.60 393.86 77.44 402.11 75.81 410.09 C 75.37 413.33 71.09 414.53 71.48 418.09 C 71.79 424.76 76.66 430.36 82.03 433.85 C 87.62 437.63 94.64 436.54 101.00 436.60 C 130.70 435.73 160.34 433.49 189.99 431.50 C 198.37 430.77 206.83 430.48 215.10 428.81 C 219.75 428.00 222.66 423.75 224.88 419.96 C 228.62 412.22 227.88 403.34 227.99 394.99 C 226.60 342.01 224.99 289.01 225.69 236.01 C 226.08 224.86 225.73 213.56 228.21 202.61 C 224.26 205.65 223.12 210.87 222.77 215.58 M 220.30 209.92 C 221.95 208.74 222.33 206.70 222.74 204.85 C 220.80 205.75 220.05 207.89 220.30 209.92 M 230.78 208.98 C 229.39 216.23 228.45 223.58 228.62 230.98 C 228.82 240.52 228.63 250.20 230.72 259.56 C 240.61 257.08 250.10 253.25 259.58 249.56 C 261.62 248.59 264.94 247.98 264.58 245.00 C 264.43 241.76 265.12 236.91 261.97 235.00 C 254.53 235.58 245.79 235.76 240.17 229.93 C 235.41 223.80 233.53 216.10 230.78 208.98 M 219.33 213.20 C 218.60 214.85 218.61 217.03 219.34 218.68 C 220.67 217.87 220.62 214.03 219.33 213.20 M 47.53 235.78 C 49.79 236.35 52.14 236.16 54.45 236.10 C 78.65 235.27 102.82 233.69 127.00 232.69 C 133.52 232.54 140.11 232.07 146.56 233.25 C 152.67 234.63 158.28 237.72 164.49 238.80 C 159.35 234.60 152.21 234.03 146.03 232.11 C 129.74 227.55 112.69 228.67 96.00 229.51 C 79.76 230.65 63.36 231.75 47.53 235.78 M 269.23 232.29 C 273.98 236.72 280.26 239.45 286.41 241.35 C 281.66 236.93 275.55 233.74 269.23 232.29 M 138.26 249.14 C 138.22 250.79 138.31 252.44 138.52 254.09 C 139.68 252.53 139.81 250.49 138.26 249.14 M 54.06 265.24 C 50.66 265.83 47.21 266.31 43.92 267.39 C 74.29 267.08 104.59 263.88 134.97 263.93 C 142.32 263.60 148.89 267.22 155.94 268.55 C 147.47 262.56 136.60 262.09 126.60 261.54 C 114.07 261.12 101.53 260.88 89.00 261.08 C 77.24 261.25 65.62 263.25 54.06 265.24 M 254.99 264.56 C 247.26 267.03 239.53 269.66 232.26 273.30 C 229.61 274.37 229.51 277.58 229.16 279.99 C 228.80 285.11 228.53 290.57 230.75 295.34 C 236.86 294.42 242.48 291.70 248.06 289.20 C 253.14 286.70 258.35 284.30 262.90 280.89 C 265.86 278.50 264.75 274.26 264.77 270.96 C 264.38 268.44 264.92 265.34 263.04 263.33 C 260.32 262.73 257.60 263.89 254.99 264.56 M 35.55 282.23 C 28.89 283.11 22.06 283.57 15.69 285.84 C 12.74 286.80 12.47 290.39 12.27 292.99 C 12.00 301.54 13.87 310.04 16.64 318.08 C 18.36 322.55 20.21 327.28 23.92 330.49 C 25.35 320.36 23.57 310.06 25.01 299.94 C 25.28 297.14 28.77 296.45 31.00 297.10 C 33.21 297.96 33.95 300.49 34.62 302.55 C 37.34 312.93 36.80 323.88 39.74 334.22 C 41.46 339.80 45.06 345.06 50.17 348.01 C 51.70 349.29 54.34 348.23 53.38 346.03 C 48.84 335.64 47.64 324.23 46.29 313.07 C 45.95 308.12 45.05 303.05 46.09 298.14 C 47.91 295.29 52.88 294.24 55.22 296.94 C 58.89 310.01 58.42 324.04 63.05 336.90 C 65.67 344.28 73.24 347.78 79.91 350.68 C 78.09 346.02 75.63 341.62 74.20 336.81 C 70.21 323.34 70.51 309.12 68.99 295.27 C 72.44 295.08 75.89 294.89 79.34 294.69 C 81.18 307.23 81.90 320.05 85.74 332.19 C 87.66 338.62 92.57 344.90 99.56 345.87 C 99.38 342.01 97.16 338.69 96.61 334.91 C 94.46 323.71 93.20 312.33 92.74 300.95 C 92.26 297.08 94.95 292.79 99.04 292.60 C 101.81 293.64 102.55 296.90 103.44 299.40 C 106.70 311.17 107.40 323.57 111.54 335.12 C 113.67 340.77 119.32 343.92 124.42 346.51 C 140.21 353.88 157.44 357.19 174.05 362.18 C 187.39 365.98 200.56 370.35 213.47 375.43 C 214.76 366.14 214.73 356.72 213.92 347.38 C 194.51 341.42 175.18 335.15 156.19 327.97 C 145.77 323.70 134.60 318.30 129.05 307.94 C 123.78 298.04 125.49 286.49 126.06 275.77 C 95.89 277.91 65.65 279.15 35.55 282.23 M 251.52 318.25 C 244.88 321.66 238.19 325.03 231.96 329.15 C 230.85 341.07 231.34 353.07 231.45 365.02 C 232.02 382.01 232.16 399.03 232.11 416.01 C 233.72 412.89 233.72 409.29 234.24 405.90 C 235.57 393.27 236.90 380.54 235.77 367.84 C 242.16 367.95 248.57 368.67 254.96 368.12 C 258.55 367.86 261.22 365.10 263.37 362.47 C 265.68 359.53 265.60 355.56 265.82 352.02 C 266.02 343.33 265.83 334.64 265.67 325.96 C 265.47 321.54 265.66 316.99 264.13 312.76 C 259.69 314.01 255.64 316.25 251.52 318.25 M 273.51 318.88 C 273.85 317.25 274.01 315.59 273.52 313.98 C 272.03 315.34 272.77 317.34 273.51 318.88 M 148.59 369.93 C 151.44 372.88 153.80 376.44 157.36 378.60 C 161.75 380.77 166.75 381.03 171.52 381.75 C 183.32 383.03 195.07 384.71 206.90 385.71 C 209.22 385.70 211.85 386.31 213.96 385.03 C 214.52 383.29 214.39 381.17 213.49 379.57 C 210.84 377.48 207.16 377.67 203.99 377.10 C 185.45 375.28 166.95 373.09 148.59 369.93 M 112.08 400.10 C 112.38 404.43 114.49 409.31 119.00 410.61 C 124.92 411.78 131.01 411.09 137.00 410.99 C 158.39 409.92 179.78 408.85 201.13 407.22 C 205.37 406.64 209.94 406.82 213.83 404.85 C 215.24 402.83 216.32 398.65 213.05 397.86 C 209.12 396.77 204.97 396.99 200.93 396.84 C 180.50 396.69 160.09 394.89 139.92 391.63 C 130.82 390.24 121.95 387.58 112.79 386.53 C 110.87 390.79 111.74 395.60 112.08 400.10 M 95.05 402.45 C 90.68 404.07 85.91 406.46 84.05 411.04 C 82.34 415.08 84.58 419.66 88.00 422.00 C 92.25 425.38 98.02 424.71 103.09 424.77 C 122.45 424.13 141.79 422.93 161.12 421.66 C 170.11 420.90 179.18 420.53 188.06 418.76 C 187.95 418.36 187.74 417.56 187.64 417.15 C 182.61 417.11 178.04 414.57 173.00 414.99 C 158.63 415.14 144.27 415.89 129.93 416.76 C 120.14 417.43 110.29 417.87 100.68 420.00 C 104.61 417.68 108.89 415.96 112.56 413.21 C 110.88 409.26 109.20 404.99 105.85 402.16 C 102.51 400.37 98.47 401.36 95.05 402.45 M 171.81 440.07 C 170.77 445.65 171.69 451.38 171.66 457.03 C 172.15 486.69 173.82 516.32 174.90 545.96 C 175.14 555.32 176.12 564.67 175.47 574.04 C 175.37 571.34 175.41 568.65 175.37 565.96 C 173.16 531.61 170.29 497.27 168.46 462.90 C 167.93 470.60 168.86 478.29 169.12 485.99 C 171.23 529.97 173.82 573.92 175.89 617.91 C 176.16 626.92 176.81 635.97 176.02 644.97 C 175.68 646.81 175.58 650.02 173.06 650.15 C 169.86 649.51 166.85 648.21 163.70 647.41 C 161.16 605.29 158.51 563.18 156.00 521.05 C 155.55 511.70 154.62 502.36 154.54 493.00 C 152.96 486.77 154.10 480.33 153.35 474.03 C 151.98 468.11 152.76 462.01 152.46 456.00 C 152.60 461.70 151.85 467.47 153.01 473.11 C 154.06 478.60 152.63 484.24 153.73 489.73 C 154.88 495.43 153.86 501.27 154.66 507.02 C 157.12 554.24 159.60 601.47 162.14 648.69 C 169.91 651.26 178.76 653.14 186.52 649.57 C 188.32 645.34 187.42 640.52 187.53 636.04 C 186.12 601.02 183.56 566.06 181.56 531.08 C 179.78 503.40 178.44 475.68 175.86 448.05 C 175.26 444.61 175.62 440.65 173.20 437.85 C 172.85 438.41 172.16 439.51 171.81 440.07 M 123.86 652.45 C 103.73 655.31 83.67 659.12 64.26 665.22 C 56.73 667.79 48.88 670.56 42.96 676.09 C 40.62 678.20 38.94 682.05 41.24 684.82 C 44.92 689.12 50.81 690.42 56.00 692.04 C 74.28 696.69 93.18 698.22 111.96 699.42 C 136.95 700.80 162.03 700.71 187.00 699.08 C 190.77 698.73 194.64 698.78 198.29 697.62 C 191.62 696.35 184.82 696.21 178.07 695.70 C 161.47 694.79 144.79 693.83 128.50 690.31 C 120.51 688.25 111.51 686.63 105.60 680.41 C 104.02 678.55 103.57 675.35 105.57 673.63 C 109.35 670.14 114.11 667.97 118.68 665.73 C 127.79 661.61 137.25 657.90 147.23 656.61 C 150.24 656.08 152.89 653.20 152.50 650.04 C 142.90 649.88 133.36 651.27 123.86 652.45 M 187.11 655.07 C 180.98 657.13 174.42 656.46 168.08 656.37 C 168.98 657.19 170.74 657.60 170.69 659.07 C 170.21 662.42 169.37 665.70 169.01 669.07 C 168.63 670.83 168.69 673.15 166.93 674.21 C 164.51 674.96 161.86 674.32 159.50 673.61 C 156.09 672.15 155.73 668.10 154.93 664.96 C 154.94 668.05 153.99 672.51 157.43 674.21 C 160.71 675.53 164.40 676.80 167.96 675.96 C 170.70 675.16 170.64 671.87 171.49 669.64 C 171.88 672.51 172.15 675.40 172.50 678.29 C 180.34 676.75 188.42 676.30 196.06 673.86 C 198.91 672.98 202.01 671.16 202.47 667.93 C 202.91 662.92 201.77 657.79 199.60 653.28 C 198.98 652.32 198.48 650.74 197.03 650.91 C 193.48 651.66 190.53 653.95 187.11 655.07 M 157.84 654.80 C 155.75 656.83 155.97 659.97 156.20 662.64 C 157.14 660.69 157.51 658.48 158.67 656.66 C 160.04 654.97 162.42 655.87 164.27 655.59 C 162.95 653.43 159.58 652.80 157.84 654.80 M 313.95 685.05 C 301.06 690.09 287.53 693.27 274.00 696.05 C 247.30 701.27 220.20 704.13 193.06 705.71 C 151.97 707.87 110.47 707.60 69.82 700.56 C 65.79 700.06 61.77 698.97 57.68 699.31 C 62.53 700.93 67.46 702.33 72.48 703.36 C 92.76 707.44 113.33 710.17 133.97 711.52 C 158.28 712.14 182.59 710.73 206.85 709.22 C 225.02 707.80 243.35 706.91 261.14 702.66 C 272.91 700.04 284.68 697.31 296.07 693.29 C 303.77 690.52 311.68 688.08 318.88 684.12 C 317.20 684.18 315.52 684.41 313.95 685.05 M 9.34 704.44 C 8.12 706.08 6.39 707.72 6.32 709.91 C 7.55 713.60 10.93 716.03 14.01 718.16 C 26.35 726.10 40.63 730.48 55.00 732.99 C 64.97 734.70 74.98 736.57 85.10 736.84 C 86.87 737.14 87.34 735.20 88.11 734.07 C 91.84 726.87 94.75 719.29 98.10 711.92 C 78.41 709.00 58.40 706.38 39.82 698.86 C 33.73 696.48 28.28 692.81 22.61 689.62 C 17.94 694.33 13.68 699.43 9.34 704.44 M 96.75 738.02 C 103.83 739.00 110.98 739.16 118.11 739.48 C 120.92 731.61 124.34 723.93 126.27 715.78 C 120.17 714.59 113.96 714.33 107.78 713.79 C 104.00 721.82 99.81 729.68 96.75 738.02 Z" />
<path fill="#fbe134" opacity="1.00" d=" M 918.35 16.99 C 918.96 15.61 920.21 14.36 921.80 15.30 C 942.40 22.16 957.39 42.42 958.44 64.04 C 958.74 71.27 958.00 78.76 955.13 85.46 L 953.93 85.66 C 953.56 85.29 952.83 84.55 952.46 84.18 C 955.42 74.75 956.26 64.54 953.78 54.90 C 950.08 39.47 938.89 25.97 924.23 19.79 C 922.21 18.99 920.16 18.22 918.35 16.99 Z" />
<path fill="#fbe134" opacity="1.00" d=" M 170.93 26.94 C 179.31 27.35 187.24 30.48 195.20 32.87 C 216.10 39.91 236.80 47.71 256.73 57.20 C 260.25 59.22 264.63 60.51 266.84 64.16 C 262.81 63.72 259.10 62.00 255.40 60.47 C 230.99 50.02 205.71 41.78 181.09 31.84 C 177.66 30.31 173.98 29.19 170.93 26.94 Z" />
<path fill="#fbe134" opacity="1.00" d=" M 914.05 35.79 C 911.94 35.43 912.92 31.85 914.92 32.78 C 930.91 37.48 941.78 54.66 939.61 71.14 C 939.05 73.99 939.08 77.53 936.93 79.65 C 936.36 79.57 935.23 79.42 934.67 79.34 C 936.28 72.50 937.56 65.30 935.40 58.41 C 932.58 47.92 924.34 39.24 914.05 35.79 Z" />
<path fill="#fbe134" opacity="1.00" d=" M 907.11 50.89 C 909.07 49.63 911.13 51.23 912.86 52.16 C 918.56 55.62 921.86 62.40 921.07 69.02 C 920.75 70.74 920.75 72.91 919.10 73.97 C 915.66 73.83 917.89 70.01 917.81 68.06 C 918.63 61.12 913.42 55.18 907.20 52.94 C 907.18 52.43 907.13 51.41 907.11 50.89 Z" />
<path fill="#fbe134" opacity="1.00" d=" M 821.37 52.58 C 829.78 50.01 840.01 54.26 843.60 62.41 C 846.69 70.01 843.68 79.41 837.15 84.22 C 827.24 91.41 810.55 84.32 809.66 71.86 C 808.53 63.68 813.68 55.40 821.37 52.58 Z" />
<path fill="#fbe134" opacity="1.00" d=" M 876.39 62.68 C 883.49 60.49 892.00 63.67 895.29 70.47 C 898.01 76.32 896.93 83.85 892.86 88.79 C 888.83 91.77 883.46 94.46 878.42 92.48 C 875.01 91.13 870.95 90.39 868.51 87.46 C 865.21 81.70 864.50 74.02 868.19 68.26 C 869.94 65.29 873.13 63.52 876.39 62.68 Z" />
<path fill="#fbe134" opacity="1.00" d=" M 767.41 68.70 C 774.35 66.33 782.78 69.06 786.24 75.71 C 790.92 83.45 786.33 94.34 778.13 97.45 C 770.86 100.18 761.62 96.65 758.72 89.27 C 755.10 81.58 759.02 71.11 767.41 68.70 Z" />
<path fill="#fbe134" opacity="1.00" d=" M 815.03 94.47 C 824.05 91.22 834.30 90.22 843.45 93.52 C 849.31 95.76 851.25 102.39 852.07 108.02 C 853.91 121.14 853.57 134.44 854.36 147.65 C 839.56 147.74 824.76 147.85 809.96 147.88 C 809.98 132.55 809.42 117.17 810.91 101.90 C 811.12 99.01 811.90 95.49 815.03 94.47 Z" />
<path fill="#fbe134" opacity="1.00" d=" M 764.30 105.54 C 772.22 104.48 780.15 103.30 788.12 102.93 C 790.21 104.68 790.60 107.59 791.50 110.01 C 794.86 121.59 797.80 133.28 800.97 144.92 C 792.44 148.04 783.92 151.27 775.13 153.56 C 771.81 141.01 768.26 128.51 765.58 115.80 C 764.85 112.42 764.52 108.98 764.30 105.54 Z" />
<path fill="#fbe134" opacity="1.00" d=" M 865.41 105.69 C 874.00 104.16 882.76 103.80 891.46 104.42 C 893.76 112.38 893.31 120.73 893.13 128.92 C 892.75 137.38 892.23 145.84 891.78 154.31 C 883.17 153.78 874.56 153.25 865.95 152.73 C 864.91 137.07 865.11 121.37 865.41 105.69 Z" />
<path fill="#fbe134" opacity="1.00" d=" M 223.86 114.61 C 228.25 112.91 233.16 113.27 237.68 114.24 L 238.29 115.57 C 235.82 115.51 233.37 115.40 230.91 115.44 C 234.20 117.81 238.18 118.84 241.88 120.36 C 259.39 126.80 276.65 133.85 293.80 141.18 C 295.46 141.91 297.18 142.52 298.96 142.93 C 295.05 139.85 290.81 137.06 287.54 133.27 C 294.49 135.40 299.78 141.78 307.27 142.20 C 307.42 144.01 308.22 146.20 306.88 147.77 C 304.55 149.07 301.44 148.46 299.45 150.46 C 297.31 152.06 296.21 154.86 297.57 157.35 C 277.29 149.68 257.82 139.87 237.01 133.63 C 231.96 132.12 226.47 131.80 221.76 129.31 C 219.96 127.38 219.81 124.53 219.87 122.03 C 220.03 119.20 220.83 115.67 223.86 114.61 Z" />
<path fill="#fbe134" opacity="1.00" d=" M 43.30 117.72 C 46.92 116.81 50.75 116.73 54.42 117.40 C 50.77 118.17 46.98 118.22 43.30 117.72 Z" />
<path fill="#fbe134" opacity="1.00" d=" M 218.68 150.74 C 221.97 146.95 227.41 146.05 232.17 145.97 C 230.80 146.83 229.41 147.65 228.01 148.47 C 231.49 150.59 235.73 150.75 239.43 152.39 C 259.14 159.95 278.74 167.89 297.81 176.96 C 294.85 174.07 290.71 172.12 289.02 168.17 C 293.91 169.59 297.41 173.93 302.57 174.65 C 305.03 174.79 304.12 177.86 303.01 179.07 C 301.22 181.82 297.03 181.56 295.53 184.57 C 294.89 186.23 294.77 188.03 294.31 189.75 C 292.86 189.69 292.26 188.17 291.48 187.20 C 291.27 187.89 290.83 189.28 290.62 189.98 C 286.96 188.61 283.86 186.16 280.36 184.48 C 265.88 177.05 250.69 170.95 235.01 166.55 C 229.91 165.04 223.97 164.96 220.01 160.93 C 217.23 158.43 216.13 153.77 218.68 150.74 Z" />
<path fill="#fbe134" opacity="1.00" d=" M 239.25 149.00 C 242.60 148.91 246.57 149.10 249.05 151.66 C 245.65 151.64 241.95 151.29 239.25 149.00 Z" />
<path fill="#fbe134" opacity="1.00" d=" M 34.21 152.40 C 35.76 151.64 37.64 151.79 39.32 152.00 C 41.13 152.92 37.54 153.33 36.97 153.17 C 35.70 153.39 34.79 153.13 34.21 152.40 Z" />
<path fill="#fbe134" opacity="1.00" d=" M 537.45 166.91 C 543.59 166.67 549.73 166.27 555.87 165.98 C 557.74 201.91 559.64 237.84 561.52 273.77 C 556.28 274.05 551.05 274.31 545.83 274.59 C 527.30 252.87 508.81 231.11 490.27 209.40 C 491.43 232.04 492.67 254.68 493.81 277.33 C 487.66 277.63 481.52 277.97 475.38 278.28 C 473.48 242.35 471.61 206.42 469.73 170.50 C 474.57 170.30 479.41 169.85 484.26 169.79 C 485.83 170.84 486.82 172.55 488.06 173.96 C 505.75 195.52 523.43 217.09 541.16 238.63 C 539.96 214.72 538.62 190.82 537.45 166.91 Z" />
<path fill="#fbe134" opacity="1.00" d=" M 367.59 169.83 C 389.67 168.68 411.74 167.52 433.82 166.36 C 432.39 172.14 430.96 177.92 429.54 183.71 C 416.40 184.33 403.26 185.23 390.11 185.67 C 390.41 195.54 391.11 205.40 391.57 215.27 C 403.66 214.63 415.75 214.00 427.83 213.36 C 426.81 219.13 425.78 224.89 424.76 230.66 C 413.99 231.20 403.23 231.78 392.46 232.35 C 392.92 241.36 393.45 250.37 393.85 259.39 C 409.45 258.65 425.03 257.76 440.63 256.97 C 439.60 262.74 438.59 268.50 437.54 274.26 C 416.11 275.37 394.67 276.50 373.24 277.63 C 371.35 241.70 369.46 205.76 367.59 169.83 Z" />
<path fill="#fbe134" opacity="1.00" d=" M 253.41 202.35 C 254.69 201.53 256.49 200.93 257.82 202.05 C 262.92 204.93 263.84 211.65 262.83 216.91 C 262.24 220.33 258.35 222.70 255.05 221.54 C 247.25 218.91 245.96 206.16 253.41 202.35 M 252.74 205.32 C 254.93 206.31 257.83 206.73 258.98 209.14 C 260.59 212.69 259.77 216.73 258.23 220.15 C 261.61 217.00 260.70 211.88 260.06 207.80 C 259.36 204.48 255.25 205.30 252.74 205.32 Z" />
<path fill="#fbe134" opacity="1.00" d=" M 41.88 248.49 C 45.63 248.06 49.49 247.40 53.23 248.18 C 49.52 248.99 45.62 249.34 41.88 248.49 Z" />
<path fill="#fbe134" opacity="1.00" d=" M 285.36 298.02 C 287.70 298.11 286.52 300.81 286.74 302.28 C 284.92 301.64 285.65 299.47 285.36 298.02 Z" />
<path fill="#fbe134" opacity="1.00" d=" M 396.98 311.03 C 411.23 305.05 427.81 306.36 441.92 312.09 C 441.71 317.94 441.48 323.79 441.29 329.64 C 432.48 325.28 422.31 323.07 412.53 324.72 C 407.21 325.60 401.44 329.12 400.89 334.97 C 399.96 339.96 403.86 344.09 408.01 346.13 C 420.98 352.77 436.63 356.01 446.17 367.89 C 452.68 376.26 453.82 387.96 450.74 397.90 C 447.81 407.11 439.54 413.58 430.60 416.48 C 415.15 421.57 398.09 420.02 383.08 414.17 C 383.24 407.57 383.36 400.97 383.44 394.38 C 394.12 399.88 406.44 403.73 418.52 401.36 C 422.97 400.32 427.83 398.46 430.25 394.31 C 433.00 389.07 431.36 381.90 426.55 378.42 C 414.82 369.77 398.98 368.81 387.98 358.96 C 381.69 353.56 378.17 345.32 378.63 337.03 C 378.51 325.56 386.62 315.28 396.98 311.03 Z" />
<path fill="#fbe134" opacity="1.00" d=" M 595.24 311.14 C 617.31 310.02 639.38 308.83 661.45 307.69 C 660.02 313.47 658.61 319.26 657.16 325.04 C 643.99 325.72 630.83 326.41 617.66 327.10 C 618.17 336.93 618.70 346.75 619.20 356.58 C 631.29 355.97 643.38 355.31 655.47 354.69 C 654.22 360.37 653.82 366.42 652.13 371.90 C 641.47 372.67 630.77 373.04 620.10 373.67 C 620.57 382.69 621.05 391.71 621.51 400.74 C 637.09 399.94 652.68 399.10 668.26 398.30 C 667.28 404.03 666.14 409.74 665.28 415.50 C 643.83 416.81 622.35 417.74 600.90 418.98 C 598.97 383.03 597.10 347.09 595.24 311.14 Z" />
<path fill="#fbe134" opacity="1.00" d=" M 484.50 311.37 C 496.00 310.80 507.49 310.13 519.00 309.60 C 528.80 309.22 539.11 310.17 547.73 315.26 C 555.64 320.15 561.16 328.67 562.41 337.89 C 563.72 347.14 562.74 357.34 556.99 365.04 C 551.98 371.82 543.99 375.70 535.91 377.45 C 527.30 379.36 518.43 379.09 509.68 379.73 C 510.35 392.50 511.02 405.27 511.69 418.04 C 504.50 418.41 497.33 418.80 490.15 419.17 C 488.26 383.24 486.37 347.31 484.50 311.37 M 506.97 327.31 C 507.51 339.38 508.24 351.43 508.81 363.49 C 517.26 362.75 526.56 363.91 534.04 359.11 C 539.06 355.96 540.48 349.55 540.14 344.01 C 539.97 338.39 538.20 331.93 532.84 329.14 C 524.84 324.93 515.55 327.26 506.97 327.31 Z" />
<path fill="#fbe134" opacity="1.00" d=" M 400.01 458.10 C 409.76 451.04 422.17 448.81 433.99 449.55 C 441.80 450.06 449.71 451.56 456.76 455.10 C 456.60 461.21 456.66 467.32 456.41 473.42 C 445.76 467.50 432.59 465.17 420.82 468.86 C 412.74 471.32 406.42 478.09 403.87 486.06 C 400.53 496.36 400.91 507.54 403.13 518.04 C 405.09 526.82 409.39 535.91 417.54 540.48 C 425.01 544.67 433.97 544.17 442.12 542.80 C 449.21 541.69 455.79 538.66 461.96 535.09 C 462.51 540.73 463.60 546.30 464.40 551.90 C 452.37 559.19 437.99 562.12 424.03 561.46 C 410.41 560.76 397.27 553.69 389.37 542.54 C 380.04 529.45 377.12 512.67 378.59 496.90 C 380.05 481.81 387.25 466.76 400.01 458.10 Z" />
<path fill="#fbe134" opacity="1.00" d=" M 1008.66 585.66 C 1010.96 583.91 1013.92 585.23 1016.17 586.41 C 1014.54 586.90 1012.44 586.75 1011.37 588.30 C 1010.30 589.78 1010.97 591.68 1010.98 593.35 C 1015.27 590.30 1021.51 593.05 1022.33 598.21 C 1019.40 600.35 1015.67 599.00 1012.92 597.25 C 1007.51 598.78 1007.84 606.40 1011.25 609.75 C 1013.37 611.09 1015.96 611.38 1018.32 612.19 C 1017.74 614.23 1015.48 613.98 1013.85 614.31 C 1009.69 614.64 1006.11 617.59 1004.03 621.05 C 1001.80 625.75 1003.25 631.52 1006.43 635.44 C 1008.22 637.65 1010.79 640.07 1013.90 639.45 C 1018.10 638.62 1023.04 636.97 1024.82 632.65 C 1026.84 628.70 1028.03 624.27 1030.89 620.79 C 1030.23 626.48 1027.76 631.83 1024.70 636.62 C 1022.84 639.58 1019.59 641.44 1016.15 641.87 C 1005.23 644.12 992.89 634.34 994.44 622.85 C 995.32 616.72 1001.43 613.43 1006.87 612.02 C 1004.89 609.71 1002.41 607.66 1001.58 604.61 C 999.94 599.72 1003.84 594.15 1008.91 593.71 C 1007.77 591.25 1006.33 587.88 1008.66 585.66 M 1014.01 596.56 C 1015.66 597.08 1017.29 598.59 1019.17 598.07 C 1020.02 594.70 1015.59 594.57 1014.01 596.56 Z" />
<path fill="#fbe134" opacity="1.00" d=" M 841.16 590.25 C 843.70 588.75 846.37 585.52 849.59 587.31 C 848.74 589.15 846.64 588.61 845.05 589.02 C 843.54 589.56 842.21 590.70 841.58 592.20 C 839.57 599.26 845.25 608.04 852.95 607.68 C 854.07 601.00 855.15 593.91 859.21 588.30 C 861.12 585.15 867.18 584.70 868.22 588.78 C 871.00 596.79 868.16 607.34 860.27 611.32 C 859.59 614.88 860.12 618.46 860.55 622.01 C 860.19 626.42 858.95 630.73 857.72 634.98 C 862.83 637.63 867.72 640.71 872.93 643.19 C 878.15 645.71 883.09 649.16 888.91 650.15 C 894.21 650.84 899.59 650.92 904.91 650.39 C 908.23 649.89 909.57 646.41 911.37 644.05 C 913.82 644.84 917.30 646.37 916.54 649.57 C 913.60 655.52 906.65 659.32 900.05 658.61 C 895.36 658.09 890.49 657.97 886.13 655.95 C 875.67 651.38 866.26 644.81 856.77 638.54 C 854.09 644.99 846.12 647.91 839.78 645.27 C 835.89 643.76 832.01 640.45 831.85 635.99 C 831.65 633.35 833.58 631.02 836.01 630.24 C 840.72 628.62 845.66 630.21 850.23 631.52 C 853.08 624.89 851.26 617.50 852.83 610.60 C 848.91 609.60 845.51 607.12 842.59 604.40 C 838.67 600.85 838.79 594.62 841.16 590.25 M 860.57 607.80 C 863.42 605.95 864.57 602.62 865.43 599.51 C 866.12 596.06 867.16 592.33 865.73 588.93 C 862.15 594.44 861.60 601.43 860.57 607.80 M 834.66 633.56 C 832.57 637.38 837.86 640.24 841.05 640.52 C 845.39 641.27 848.46 637.40 849.56 633.68 C 845.01 631.75 838.72 629.67 834.66 633.56 Z" />
<path fill="#fbe134" opacity="1.00" d=" M 904.42 594.21 C 909.06 594.48 910.53 599.25 911.86 602.89 C 912.01 604.96 911.79 607.05 911.70 609.14 C 915.33 609.18 919.03 608.83 922.59 609.79 C 920.89 607.82 921.97 605.17 921.96 602.87 C 923.81 601.26 926.99 602.40 926.78 605.00 C 926.44 607.19 927.29 611.47 923.65 610.24 C 925.53 610.96 927.10 612.21 928.01 614.05 C 922.90 611.55 917.24 610.91 911.60 611.18 C 911.70 615.46 912.49 619.75 911.93 624.03 C 911.48 627.78 910.93 631.63 912.01 635.34 C 916.84 631.28 918.81 624.97 920.47 619.11 C 920.70 619.54 921.16 620.40 921.39 620.83 C 920.72 626.50 917.75 631.84 914.26 636.29 C 911.84 639.44 908.67 636.07 906.66 634.31 C 903.84 632.51 904.28 628.84 904.33 625.97 C 904.66 621.13 904.57 616.29 904.33 611.46 C 900.39 610.99 896.25 611.16 892.58 609.46 C 891.53 609.09 891.05 608.34 891.12 607.22 C 895.45 608.44 899.93 608.95 904.43 608.76 C 905.58 603.93 904.81 599.06 904.42 594.21 Z" />
<path fill="#fbe134" opacity="1.00" d=" M 1091.92 594.62 C 1095.44 595.45 1098.86 597.81 1100.58 601.02 C 1101.27 605.98 1100.00 611.17 1101.55 616.05 C 1101.51 621.92 1102.18 627.79 1102.90 633.64 C 1107.19 630.25 1107.54 624.34 1109.18 619.53 C 1109.52 619.48 1110.20 619.39 1110.55 619.34 C 1109.74 624.50 1108.24 629.55 1105.72 634.15 C 1104.05 634.84 1102.39 636.47 1100.49 635.71 C 1096.38 633.93 1094.63 629.22 1094.32 625.05 C 1093.95 619.70 1092.84 614.41 1092.85 609.04 C 1092.95 604.20 1091.38 599.47 1091.92 594.62 Z" />
<path fill="#fbe134" opacity="1.00" d=" M 1217.07 595.77 C 1221.33 596.29 1222.88 600.38 1224.45 603.76 C 1224.40 605.77 1224.33 607.80 1224.26 609.83 C 1228.97 609.81 1234.16 609.22 1238.34 611.89 C 1239.40 612.37 1239.80 613.47 1240.14 614.52 C 1235.29 611.70 1229.59 611.57 1224.15 611.75 C 1224.30 615.88 1225.05 620.03 1224.43 624.17 C 1223.95 627.43 1223.69 630.77 1224.42 634.03 C 1227.05 632.83 1228.21 629.96 1229.74 627.69 C 1231.56 624.97 1231.44 621.32 1233.73 618.90 C 1234.42 623.98 1231.25 628.43 1228.81 632.59 C 1227.49 634.61 1225.05 637.67 1222.43 635.69 C 1220.24 633.89 1216.81 632.40 1216.98 629.07 C 1216.87 623.36 1217.51 617.63 1216.88 611.93 C 1212.28 611.39 1206.62 612.21 1203.23 608.38 C 1207.84 608.69 1212.37 609.89 1217.04 609.51 C 1218.24 604.95 1217.26 600.36 1217.07 595.77 Z" />
<path fill="#fbe134" opacity="1.00" d=" M 1323.99 596.77 C 1330.07 597.85 1332.35 605.11 1331.32 610.51 C 1335.78 610.44 1340.36 610.28 1344.60 611.96 C 1345.28 608.60 1346.23 605.29 1346.52 601.87 C 1350.70 602.17 1351.55 606.94 1352.92 610.04 C 1351.33 614.29 1350.53 618.77 1349.98 623.27 C 1352.26 620.82 1354.32 617.57 1357.90 616.99 C 1360.28 616.39 1362.68 618.09 1363.32 620.38 C 1364.63 625.39 1362.48 630.44 1362.78 635.42 C 1368.25 633.50 1369.31 627.13 1371.28 622.42 C 1371.63 622.32 1372.33 622.10 1372.68 622.00 C 1371.92 627.12 1369.95 632.30 1365.99 635.79 C 1362.88 636.59 1358.95 635.65 1357.39 632.58 C 1355.26 628.39 1356.37 623.51 1356.29 619.01 C 1353.48 620.89 1352.39 624.09 1351.48 627.17 C 1353.50 631.14 1350.22 634.77 1348.74 638.30 C 1344.98 637.48 1344.99 633.15 1344.37 630.12 C 1343.27 624.64 1345.06 619.13 1344.10 613.65 C 1339.91 612.43 1335.55 612.34 1331.23 612.38 C 1331.49 616.88 1332.26 621.43 1331.43 625.93 C 1331.29 628.66 1330.28 632.06 1332.41 634.29 C 1334.92 631.13 1337.57 627.88 1338.69 623.93 C 1339.13 622.30 1339.66 620.65 1340.91 619.44 C 1341.66 624.23 1338.62 628.42 1336.33 632.34 C 1334.96 634.28 1332.89 637.40 1330.13 635.98 C 1327.71 634.21 1324.00 632.64 1324.13 629.11 C 1323.97 623.56 1324.67 617.99 1323.86 612.46 C 1319.28 611.97 1313.61 612.75 1310.24 608.95 C 1314.85 609.36 1319.40 610.46 1324.07 610.14 C 1325.20 605.70 1324.30 601.23 1323.99 596.77 Z" />
<path fill="#fbe134" opacity="1.00" d=" M 1158.86 617.99 C 1158.13 611.86 1160.42 605.97 1161.58 600.05 C 1165.24 601.56 1166.17 605.61 1167.41 608.92 C 1165.76 613.41 1164.93 618.13 1164.36 622.88 C 1166.63 620.19 1168.73 616.68 1172.53 616.11 C 1175.00 615.57 1177.28 617.63 1177.68 619.99 C 1178.65 625.09 1176.87 630.20 1176.85 635.24 C 1180.78 634.14 1182.40 629.94 1183.76 626.51 C 1184.65 624.64 1184.47 621.80 1186.75 620.96 C 1186.25 626.50 1184.03 632.07 1179.89 635.86 C 1177.01 636.22 1173.46 635.81 1171.95 632.98 C 1169.36 628.55 1170.68 623.14 1170.69 618.31 C 1167.68 620.30 1166.72 623.77 1165.75 627.01 C 1165.99 627.80 1166.48 629.40 1166.72 630.19 C 1165.46 632.94 1164.43 635.78 1163.03 638.47 C 1161.80 637.94 1160.14 637.50 1159.99 635.93 C 1158.14 630.12 1158.18 623.98 1158.86 617.99 Z" />
<path fill="#fbe134" opacity="1.00" d=" M 1114.83 603.99 C 1116.11 600.56 1120.37 602.15 1122.44 603.92 C 1121.83 605.90 1121.09 607.84 1120.16 609.69 C 1117.28 609.36 1114.52 607.09 1114.83 603.99 Z" />
<path fill="#fbe134" opacity="1.00" d=" M 949.22 606.89 C 951.37 607.90 953.61 609.19 954.53 611.55 C 955.74 613.44 953.96 615.39 953.47 617.21 C 955.97 621.76 961.90 625.61 959.85 631.49 C 963.53 630.24 965.27 626.68 966.65 623.36 C 966.98 623.30 967.62 623.17 967.95 623.10 C 967.03 627.69 964.30 631.82 959.69 633.31 C 960.53 640.15 950.86 641.18 947.31 636.96 C 945.48 633.36 950.77 631.92 953.38 631.78 C 953.26 627.55 952.68 623.09 949.86 619.74 C 948.49 622.51 948.59 626.26 945.98 628.27 C 946.44 624.81 947.94 621.59 948.41 618.15 C 947.99 616.03 947.20 614.02 946.80 611.92 C 946.95 610.01 948.32 608.50 949.22 606.89 M 948.53 635.95 C 949.89 638.80 953.59 636.01 953.28 633.56 C 951.59 634.12 949.70 634.49 948.53 635.95 Z" />
<path fill="#fbe134" opacity="1.00" d=" M 1134.38 611.83 C 1135.21 610.29 1136.07 608.76 1136.99 607.27 C 1139.59 608.35 1142.13 610.21 1142.79 613.12 C 1142.43 614.51 1141.77 615.80 1141.20 617.11 C 1143.63 621.51 1149.56 625.16 1147.56 630.90 C 1151.31 629.53 1153.21 625.92 1154.53 622.41 C 1154.83 622.79 1155.15 623.17 1155.49 623.55 C 1154.36 627.65 1151.72 631.25 1147.49 632.47 C 1148.22 639.60 1136.98 640.48 1134.51 634.98 C 1135.10 631.96 1138.60 631.48 1141.12 631.19 C 1141.05 627.07 1140.29 622.83 1137.66 619.53 C 1136.58 622.49 1135.71 625.56 1134.16 628.32 C 1133.42 623.98 1137.38 620.05 1135.61 615.78 C 1135.24 614.45 1134.78 613.13 1134.38 611.83 M 1135.94 635.16 C 1137.95 637.54 1140.84 635.51 1141.10 632.95 C 1139.21 633.25 1137.46 634.03 1135.94 635.16 Z" />
<path fill="#fbe134" opacity="1.00" d=" M 1400.17 610.06 C 1401.06 606.79 1406.23 606.83 1407.14 610.06 C 1408.03 613.50 1406.70 616.98 1406.09 620.37 C 1408.72 620.21 1410.83 618.58 1413.12 617.45 C 1415.24 617.95 1417.12 619.27 1418.45 621.01 C 1417.98 625.07 1416.09 628.93 1416.27 633.08 C 1416.46 636.02 1417.95 638.63 1419.15 641.26 C 1420.60 640.83 1422.40 640.78 1423.35 639.38 C 1426.40 635.77 1427.31 630.95 1427.53 626.36 C 1427.89 626.37 1428.63 626.40 1429.00 626.41 L 1429.00 631.28 L 1428.93 628.90 C 1427.62 632.80 1426.84 637.01 1424.72 640.59 C 1421.71 644.68 1415.36 642.99 1412.50 639.59 C 1408.03 634.81 1409.28 627.70 1410.22 621.84 C 1408.49 621.78 1406.79 621.69 1405.10 621.64 C 1404.80 623.54 1404.51 625.45 1404.28 627.38 C 1403.70 627.39 1403.13 627.40 1402.59 627.41 C 1403.13 625.24 1403.73 623.10 1404.25 620.94 C 1400.77 618.53 1398.12 614.31 1400.17 610.06 M 1404.75 618.83 C 1405.38 616.62 1405.61 614.32 1405.73 612.03 C 1402.31 612.00 1403.04 616.96 1404.75 618.83 Z" />
<path fill="#fbe134" opacity="1.00" d=" M 880.81 616.90 C 884.06 614.58 890.04 614.58 891.53 619.00 C 892.30 624.89 887.28 629.17 883.49 632.86 C 883.64 634.99 884.32 637.06 884.88 639.13 C 888.86 640.41 892.07 636.86 894.04 633.88 C 896.13 630.87 895.97 626.55 899.00 624.21 C 897.27 630.53 895.12 637.82 889.12 641.39 C 886.43 642.66 883.10 641.87 880.66 640.36 C 877.84 638.08 877.10 634.27 876.58 630.89 C 875.73 625.91 877.24 620.51 880.81 616.90 M 884.39 629.79 C 887.06 627.15 890.71 623.24 888.78 619.24 C 886.05 622.08 885.05 626.02 884.39 629.79 Z" />
<path fill="#fbe134" opacity="1.00" d=" M 1034.50 614.80 C 1038.32 615.27 1040.51 618.51 1041.46 621.96 C 1042.97 619.60 1044.47 617.02 1047.00 615.61 C 1050.47 615.36 1051.26 619.63 1052.73 621.96 C 1052.45 626.55 1051.54 631.09 1051.43 635.70 C 1055.25 633.98 1057.07 629.91 1057.92 626.05 C 1058.54 624.44 1058.46 621.96 1060.54 621.43 C 1059.59 626.88 1058.27 633.15 1053.47 636.56 C 1050.80 637.92 1047.28 636.76 1045.97 634.05 C 1042.99 629.36 1045.29 623.80 1046.14 618.84 C 1045.20 619.60 1044.01 620.18 1043.45 621.31 C 1041.05 626.38 1040.58 632.08 1040.62 637.62 C 1040.00 637.87 1038.76 638.36 1038.14 638.61 C 1031.37 632.64 1034.90 622.61 1034.50 614.80 Z" />
<path fill="#fbe134" opacity="1.00" d=" M 1066.15 618.46 C 1068.10 617.76 1069.96 616.82 1071.95 616.22 C 1073.79 615.81 1074.84 617.74 1075.98 618.82 C 1072.12 619.74 1071.28 623.93 1070.19 627.16 C 1068.97 630.17 1069.87 633.37 1070.22 636.45 C 1075.87 633.51 1074.16 626.03 1075.11 620.82 C 1081.63 622.48 1082.61 630.32 1081.97 635.96 C 1084.73 632.81 1086.96 629.25 1088.72 625.46 C 1089.08 624.44 1089.82 623.70 1090.71 623.12 C 1090.54 626.42 1088.45 629.14 1086.99 631.97 C 1085.56 634.72 1083.63 637.16 1081.22 639.10 C 1080.41 643.61 1080.28 648.49 1077.57 652.38 C 1076.39 655.42 1072.66 655.13 1069.99 655.33 C 1067.71 655.55 1065.02 653.29 1065.94 650.92 C 1067.85 646.69 1072.18 644.41 1075.25 641.15 C 1075.88 638.37 1075.72 635.48 1075.99 632.66 C 1074.83 634.77 1073.58 636.83 1072.13 638.74 C 1068.63 637.76 1065.65 635.46 1063.37 632.71 C 1061.75 627.83 1063.28 622.54 1066.15 618.46 M 1067.09 651.25 C 1066.34 653.99 1071.13 654.08 1072.40 652.38 C 1073.77 649.87 1074.24 647.01 1074.89 644.26 C 1072.15 646.41 1069.23 648.46 1067.09 651.25 Z" />
<path fill="#fbe134" opacity="1.00" d=" M 1114.78 616.88 C 1115.91 614.84 1118.87 616.85 1119.74 618.35 C 1122.87 623.90 1120.22 630.33 1120.77 636.26 C 1126.47 633.54 1126.41 626.37 1129.95 622.01 C 1129.37 626.84 1127.56 631.70 1124.67 635.64 C 1122.88 638.25 1118.87 638.73 1116.80 636.20 C 1112.18 630.84 1113.84 623.22 1114.78 616.88 Z" />
<path fill="#fbe134" opacity="1.00" d=" M 1268.44 618.61 C 1270.35 617.90 1272.21 617.01 1274.17 616.41 C 1275.93 615.83 1277.16 617.68 1278.56 618.39 C 1273.88 620.58 1272.32 626.39 1272.16 631.13 C 1272.65 632.32 1271.81 635.61 1273.81 635.28 C 1277.91 631.86 1277.21 625.88 1277.34 621.09 C 1280.51 620.76 1282.17 623.79 1283.88 625.92 C 1284.59 628.99 1284.77 632.14 1284.64 635.30 C 1287.87 631.65 1290.39 627.46 1292.48 623.08 C 1292.70 623.30 1293.16 623.74 1293.39 623.96 C 1291.25 629.20 1288.51 634.62 1283.90 638.12 C 1283.04 643.20 1282.64 648.91 1278.70 652.70 C 1275.39 653.73 1269.13 654.93 1268.32 650.19 C 1269.75 645.45 1274.88 643.42 1277.95 639.96 C 1278.40 637.27 1278.35 634.52 1278.76 631.83 C 1277.60 633.74 1276.49 635.71 1275.02 637.41 C 1271.33 637.55 1268.34 634.48 1265.93 632.03 C 1264.25 627.46 1265.82 622.48 1268.44 618.61 M 1269.11 650.29 C 1269.61 650.62 1270.61 651.29 1271.11 651.63 C 1276.19 653.09 1276.56 646.34 1277.52 643.09 C 1274.48 645.19 1271.52 647.46 1269.11 650.29 Z" />
<path fill="#fbe134" opacity="1.00" d=" M 1301.11 616.94 C 1303.88 616.35 1307.15 615.27 1309.64 617.25 C 1311.91 618.63 1311.77 621.70 1310.68 623.80 C 1308.99 627.09 1306.29 629.78 1303.23 631.80 C 1303.65 633.62 1303.91 635.54 1304.74 637.26 C 1307.24 639.14 1310.24 636.79 1312.09 635.04 C 1315.44 632.12 1315.61 627.27 1318.43 623.99 C 1318.89 626.63 1317.01 628.88 1316.17 631.25 C 1314.66 635.07 1311.93 638.63 1307.99 640.11 C 1304.75 640.56 1300.75 639.92 1298.82 636.99 C 1294.99 630.80 1295.40 621.91 1301.11 616.94 M 1304.20 629.15 C 1306.69 627.04 1310.96 622.96 1308.31 619.60 C 1306.07 622.34 1304.89 625.71 1304.20 629.15 Z" />
<path fill="#fbe134" opacity="1.00" d=" M 1241.00 618.13 C 1244.57 614.90 1250.57 617.16 1252.61 621.08 C 1248.74 621.49 1244.53 623.81 1243.88 627.97 C 1243.66 630.68 1243.67 633.62 1244.75 636.17 C 1245.54 638.04 1247.81 638.33 1249.52 637.59 C 1251.44 635.96 1251.92 633.38 1252.64 631.10 C 1253.48 629.01 1251.64 627.38 1250.21 626.21 C 1250.14 627.56 1250.49 628.77 1251.27 629.84 C 1250.88 630.50 1250.50 631.17 1250.12 631.84 C 1249.32 630.21 1248.18 628.75 1247.93 626.93 C 1247.72 624.98 1250.57 623.63 1251.88 625.18 C 1253.83 627.11 1254.46 629.97 1254.09 632.65 C 1258.74 631.80 1258.76 625.82 1261.60 622.88 C 1262.02 626.76 1259.82 630.48 1257.10 633.07 C 1256.04 634.20 1254.43 633.92 1253.09 633.83 C 1252.77 637.20 1249.38 639.84 1246.04 639.21 C 1243.27 638.71 1240.43 637.56 1238.76 635.20 C 1235.73 629.86 1235.80 622.14 1241.00 618.13 Z" />
<path fill="#fbe134" opacity="1.00" d=" M 1379.40 618.21 C 1382.82 616.13 1389.12 616.19 1390.20 620.89 C 1390.14 625.87 1385.97 629.65 1382.10 632.18 C 1382.52 634.16 1382.55 636.44 1383.94 638.06 C 1388.04 639.30 1391.63 635.41 1393.47 632.16 C 1394.99 629.88 1394.86 626.08 1397.82 625.10 C 1395.77 629.93 1394.31 635.60 1389.87 638.84 C 1386.22 642.00 1379.66 640.92 1377.19 636.80 C 1374.02 630.98 1374.02 622.76 1379.40 618.21 M 1382.92 629.83 C 1385.76 627.60 1388.47 624.41 1387.94 620.51 C 1384.31 622.04 1383.96 626.58 1382.92 629.83 Z" />
<path fill="#fbe134" opacity="1.00" d=" M 1388.64 643.83 C 1394.37 643.00 1400.29 642.82 1405.96 644.16 C 1411.30 645.71 1417.52 645.55 1421.55 649.98 C 1420.26 651.80 1419.10 653.83 1417.14 655.01 C 1415.46 652.89 1413.33 651.07 1410.60 650.57 C 1399.61 647.95 1388.26 645.45 1376.92 647.07 C 1371.86 647.91 1366.75 648.43 1361.63 648.52 C 1369.85 643.91 1379.59 644.76 1388.64 643.83 Z" />
<path fill="#fbe134" opacity="1.00" d=" M 193.20 654.04 C 194.44 653.20 195.85 652.68 197.21 652.08 C 200.56 657.12 201.42 663.73 200.62 669.62 C 200.26 670.04 199.52 670.87 199.16 671.29 C 195.73 667.79 196.06 662.69 194.64 658.34 C 193.93 659.81 193.25 661.34 192.48 662.80 C 192.20 659.92 191.35 656.58 193.20 654.04 Z" />
</g>
<g id="#e9eaecff">
<path fill="#e9eaec" opacity="1.00" d=" M 610.86 178.86 C 619.63 170.85 631.14 166.12 642.96 165.31 C 654.52 164.46 666.74 165.49 677.16 170.92 C 676.95 177.60 676.95 184.28 676.76 190.96 C 666.70 184.60 654.27 182.23 642.56 184.30 C 634.92 185.79 627.98 190.47 623.75 197.01 C 617.95 205.75 616.54 216.74 617.84 226.98 C 618.71 235.76 622.00 244.51 628.13 250.98 C 633.48 256.61 641.27 259.71 649.02 259.53 C 654.45 259.35 659.81 258.10 664.88 256.14 C 664.36 247.85 664.03 239.54 663.54 231.24 C 657.53 231.55 651.52 231.94 645.51 232.15 C 647.00 226.05 648.50 219.95 650.03 213.86 C 661.62 213.19 673.22 212.64 684.82 212.01 C 685.55 229.74 686.95 247.48 687.38 265.19 C 679.51 271.99 669.20 275.21 659.16 277.16 C 643.50 279.82 626.25 277.50 613.42 267.58 C 601.19 258.31 594.86 243.09 593.53 228.12 C 591.42 210.26 597.26 191.03 610.86 178.86 Z" />
<path fill="#e9eaec" opacity="1.00" d=" M 912.51 165.73 C 923.44 164.51 934.65 166.18 944.81 170.37 C 944.80 176.62 944.24 182.85 944.27 189.09 C 936.22 185.06 927.14 182.77 918.11 183.46 C 913.35 183.88 908.13 185.40 905.30 189.55 C 903.11 192.93 903.12 197.94 906.05 200.90 C 909.47 204.50 914.33 206.08 918.75 208.06 C 928.73 212.19 939.34 216.05 947.04 223.97 C 955.33 232.52 957.13 245.85 953.59 256.92 C 950.78 265.51 943.37 271.83 935.08 274.94 C 918.97 280.97 900.80 279.41 884.99 273.18 C 885.17 266.23 885.25 259.28 885.41 252.34 C 894.54 256.94 904.55 260.59 914.91 260.23 C 920.31 260.04 926.01 258.81 930.23 255.23 C 934.10 251.96 934.24 246.00 932.19 241.69 C 930.08 237.44 925.52 235.35 921.55 233.24 C 910.45 227.95 897.40 225.65 888.53 216.51 C 878.30 206.61 877.88 188.73 887.16 178.07 C 893.41 170.60 903.04 166.84 912.51 165.73 Z" />
<path fill="#e9eaec" opacity="1.00" d=" M 1049.47 166.68 C 1056.95 166.21 1064.46 165.97 1071.95 165.47 C 1073.97 201.73 1075.76 238.00 1077.70 274.26 C 1070.18 274.74 1062.66 275.02 1055.15 275.46 C 1054.45 260.74 1053.55 246.03 1052.89 231.31 C 1039.37 232.00 1025.85 232.73 1012.33 233.42 C 1013.12 248.14 1013.86 262.86 1014.65 277.58 C 1007.11 277.98 999.59 278.39 992.06 278.72 C 990.26 242.48 988.29 206.24 986.40 170.01 C 993.92 169.61 1001.44 169.11 1008.96 168.84 C 1009.73 184.34 1010.59 199.83 1011.38 215.33 C 1024.90 214.67 1038.41 213.95 1051.93 213.22 C 1051.06 197.71 1050.29 182.19 1049.47 166.68 Z" />
<path fill="#e9eaec" opacity="1.00" d=" M 820.45 168.33 C 827.95 167.93 835.45 167.58 842.95 167.12 C 844.92 203.39 846.79 239.67 848.67 275.95 C 841.15 276.23 833.64 276.84 826.11 277.08 C 824.30 240.83 822.32 204.58 820.45 168.33 Z" />
<path fill="#e9eaec" opacity="1.00" d=" M 721.23 169.28 C 728.74 168.90 736.26 168.50 743.78 168.08 C 745.36 198.33 746.92 228.58 748.55 258.83 C 763.39 257.94 778.26 257.39 793.09 256.39 C 792.16 262.55 791.00 268.67 789.87 274.80 C 768.89 275.80 747.93 277.01 726.96 278.05 C 724.99 241.79 723.16 205.53 721.23 169.28 Z" />
<path fill="#e9eaec" opacity="1.00" d=" M 1163.11 310.13 C 1177.40 304.66 1193.85 305.88 1207.78 311.86 C 1207.45 318.04 1207.27 324.23 1207.03 330.41 C 1199.35 326.44 1190.65 324.31 1182.00 324.72 C 1177.47 324.96 1172.64 326.09 1169.34 329.41 C 1165.65 333.05 1165.61 339.90 1169.85 343.15 C 1175.44 347.59 1182.50 349.49 1188.92 352.40 C 1199.19 356.72 1210.23 362.35 1215.16 372.96 C 1220.41 384.70 1219.08 400.22 1209.32 409.29 C 1200.38 417.43 1187.80 419.99 1176.04 420.02 C 1166.44 420.24 1157.05 417.83 1148.06 414.69 C 1147.85 407.68 1148.17 400.67 1148.27 393.67 C 1159.22 399.18 1171.75 403.41 1184.10 400.79 C 1188.45 399.73 1193.21 397.78 1195.38 393.58 C 1197.60 388.50 1195.98 381.88 1191.36 378.67 C 1178.84 369.64 1161.55 368.95 1150.79 357.20 C 1143.56 349.83 1141.82 338.41 1144.75 328.76 C 1147.55 320.10 1154.76 313.40 1163.11 310.13 Z" />
<path fill="#e9eaec" opacity="1.00" d=" M 728.51 311.63 C 733.61 310.09 738.72 308.58 743.81 307.02 C 760.05 343.07 776.29 379.12 792.48 415.20 C 784.25 415.71 776.02 416.05 767.79 416.50 C 763.75 407.18 759.70 397.87 755.66 388.56 C 744.42 389.09 733.20 389.81 721.96 390.26 C 718.75 399.94 715.85 409.72 712.69 419.42 C 705.90 419.79 699.12 420.08 692.34 420.46 C 704.35 384.17 716.47 347.92 728.51 311.63 M 727.20 372.62 C 734.18 372.18 741.16 371.94 748.14 371.51 C 744.19 362.32 740.14 353.18 736.18 344.00 C 733.05 353.49 730.21 363.08 727.20 372.62 Z" />
<path fill="#e9eaec" opacity="1.00" d=" M 873.97 307.96 C 881.50 307.59 889.02 307.08 896.56 306.81 C 885.58 323.80 874.59 340.78 863.58 357.74 C 877.58 377.01 891.79 396.12 905.82 415.36 C 897.53 415.79 889.25 416.29 880.96 416.61 C 879.44 415.58 878.63 413.82 877.51 412.43 C 868.11 399.74 858.74 387.04 849.30 374.38 C 847.07 374.51 844.84 374.64 842.63 374.77 C 843.35 389.37 844.15 403.97 844.91 418.57 C 837.39 418.97 829.88 419.31 822.37 419.74 C 820.48 383.48 818.54 347.23 816.69 310.98 C 824.19 310.57 831.68 310.11 839.19 309.80 C 840.13 325.63 840.73 341.47 841.78 357.29 C 852.87 341.10 863.15 324.34 873.97 307.96 Z" />
<path fill="#e9eaec" opacity="1.00" d=" M 929.14 310.63 C 951.62 309.59 974.10 308.25 996.58 307.18 C 994.89 313.26 993.60 319.45 991.92 325.53 C 978.82 326.19 965.72 326.87 952.62 327.58 C 953.05 337.07 953.65 346.55 954.07 356.04 C 966.20 355.46 978.33 354.80 990.45 354.13 C 989.45 360.25 988.30 366.33 987.24 372.43 C 976.50 372.99 965.77 373.63 955.03 374.09 C 955.50 382.78 955.95 391.48 956.40 400.18 C 972.03 399.49 987.64 398.50 1003.26 397.80 C 1002.19 403.88 1001.14 409.96 1000.01 416.03 C 978.28 417.22 956.55 418.33 934.82 419.46 C 932.92 383.18 930.98 346.91 929.14 310.63 Z" />
<path fill="#e9eaec" opacity="1.00" d=" M 1031.25 311.05 C 1045.82 310.53 1060.41 308.72 1075.00 309.66 C 1084.39 310.42 1094.54 312.65 1101.23 319.80 C 1108.29 327.54 1109.84 338.90 1108.30 348.93 C 1106.94 357.86 1100.89 365.37 1093.53 370.29 C 1102.80 385.35 1112.22 400.32 1121.54 415.36 C 1113.41 415.92 1105.26 416.06 1097.14 416.75 C 1089.13 403.70 1081.66 390.32 1073.81 377.18 C 1068.32 377.51 1062.85 377.84 1057.37 378.06 C 1058.08 391.58 1058.77 405.10 1059.49 418.62 C 1051.99 419.04 1044.48 419.37 1036.98 419.82 C 1035.01 383.57 1033.18 347.30 1031.25 311.05 M 1054.77 327.95 C 1055.27 338.93 1055.90 349.90 1056.47 360.88 C 1064.26 360.14 1072.84 361.20 1079.74 356.77 C 1084.00 354.11 1085.34 348.73 1085.15 344.01 C 1085.16 338.61 1083.63 332.29 1078.44 329.61 C 1071.10 325.85 1062.62 327.75 1054.77 327.95 Z" />
<path fill="#e9eaec" opacity="1.00" d=" M 533.63 449.83 C 545.53 448.28 558.14 450.71 567.95 457.84 C 580.37 466.54 587.11 481.31 589.20 495.98 C 591.56 512.40 589.25 530.31 579.29 544.00 C 571.24 555.18 557.79 561.84 544.11 562.36 C 531.27 563.44 517.88 559.49 508.44 550.55 C 497.04 539.90 491.75 524.15 490.96 508.87 C 490.23 495.03 492.82 480.51 500.88 468.98 C 508.34 458.25 520.61 451.09 533.63 449.83 M 537.01 468.18 C 530.98 468.72 525.41 472.08 521.92 477.00 C 516.76 484.20 515.29 493.31 515.07 501.99 C 515.04 510.86 516.10 519.92 519.60 528.15 C 522.35 534.59 527.30 540.48 534.09 542.78 C 542.24 545.47 552.06 543.27 557.65 536.57 C 564.34 528.78 565.83 518.00 565.81 508.08 C 565.52 497.02 563.74 485.20 556.70 476.26 C 552.13 470.34 544.43 467.12 537.01 468.18 Z" />
<path fill="#e9eaec" opacity="1.00" d=" M 705.23 450.11 C 711.69 449.89 718.14 449.41 724.61 449.13 C 728.20 485.31 731.90 521.47 735.48 557.65 C 728.14 558.03 720.80 558.39 713.46 558.80 C 711.34 535.51 709.27 512.21 707.09 488.93 C 698.80 507.26 690.71 525.69 682.66 544.13 C 679.99 544.34 677.32 544.48 674.66 544.73 C 663.69 526.88 653.16 508.76 642.31 490.84 C 642.68 514.72 643.01 538.59 643.34 562.47 C 637.39 562.85 631.43 563.04 625.48 563.40 C 624.96 527.07 624.62 490.74 624.07 454.41 C 631.01 453.95 637.97 453.79 644.91 453.24 C 656.17 472.16 667.04 491.31 678.20 510.30 C 687.23 490.25 696.18 470.16 705.23 450.11 Z" />
<path fill="#e9eaec" opacity="1.00" d=" M 852.42 450.21 C 858.91 449.78 865.40 449.49 871.89 449.12 C 875.59 485.28 879.17 521.47 882.83 557.64 C 875.48 558.04 868.14 558.39 860.80 558.79 C 858.68 535.45 856.51 512.12 854.47 488.78 C 846.11 507.18 838.11 525.74 829.87 544.20 C 827.18 544.35 824.50 544.50 821.82 544.65 C 811.05 526.88 800.68 508.85 789.69 491.23 C 789.94 514.97 790.35 538.71 790.67 562.46 C 784.72 562.85 778.76 563.04 772.82 563.40 C 772.26 527.06 771.93 490.73 771.42 454.40 C 778.42 454.01 785.43 453.66 792.44 453.33 C 803.43 472.35 814.43 491.37 825.58 510.31 C 834.43 490.23 843.60 470.30 852.42 450.21 Z" />
<path fill="#e9eaec" opacity="1.00" d=" M 980.79 450.58 C 987.77 450.13 994.77 449.91 1001.76 449.47 C 1002.57 465.97 1003.50 482.47 1004.33 498.97 C 1004.70 510.97 1006.62 523.15 1004.14 535.05 C 1002.51 543.34 996.88 550.39 989.82 554.81 C 979.31 561.78 966.16 563.19 953.86 562.27 C 943.49 561.36 932.72 557.16 926.39 548.56 C 920.67 540.79 919.29 530.85 918.84 521.46 C 917.62 498.99 916.50 476.51 915.28 454.03 C 922.81 453.64 930.33 453.13 937.86 452.86 C 938.97 475.56 940.23 498.25 941.40 520.94 C 941.90 527.34 942.74 534.63 947.82 539.17 C 954.38 544.53 963.76 544.85 971.58 542.45 C 977.35 540.65 982.28 535.97 983.63 529.97 C 984.42 526.06 984.41 522.02 984.27 518.05 C 983.16 495.55 981.87 473.07 980.79 450.58 Z" />
<path fill="#e9eaec" opacity="1.00" d=" M 1109.04 450.44 C 1115.50 450.12 1121.97 449.83 1128.44 449.46 C 1130.33 485.71 1132.29 521.97 1134.11 558.23 C 1128.67 558.54 1123.23 558.82 1117.80 559.13 C 1099.44 537.79 1081.29 516.26 1062.97 494.87 C 1064.08 517.18 1065.31 539.49 1066.45 561.80 C 1059.97 562.10 1053.50 562.46 1047.04 562.83 C 1045.07 526.57 1043.23 490.31 1041.32 454.04 C 1046.49 453.77 1051.68 453.49 1056.86 453.18 C 1075.52 475.81 1094.05 498.56 1112.74 521.16 C 1111.45 497.59 1110.22 474.01 1109.04 450.44 Z" />
<path fill="#e9eaec" opacity="1.00" d=" M 1225.17 453.95 C 1253.71 452.37 1282.26 450.94 1310.81 449.43 C 1310.28 455.49 1309.89 461.56 1309.37 467.61 C 1299.15 468.12 1288.94 468.74 1278.72 469.20 C 1280.18 499.48 1281.99 529.74 1283.37 560.03 C 1275.88 560.16 1268.41 560.88 1260.93 561.09 C 1259.26 530.86 1257.80 500.63 1256.12 470.41 C 1245.35 470.95 1234.58 471.58 1223.81 472.08 C 1224.16 466.03 1224.81 460.00 1225.17 453.95 Z" />
<path fill="#e9eaec" opacity="1.00" d=" M 1401.74 450.49 C 1408.58 449.91 1415.44 449.79 1422.29 449.33 C 1413.15 469.75 1403.90 490.12 1394.72 510.53 C 1393.68 512.93 1392.36 515.22 1391.69 517.75 C 1392.25 531.81 1393.12 545.85 1393.83 559.91 C 1386.30 560.22 1378.78 560.81 1371.26 561.04 C 1370.63 547.71 1369.86 534.39 1369.20 521.06 C 1369.02 519.57 1369.20 517.96 1368.36 516.67 C 1355.89 495.79 1343.30 475.00 1330.90 454.09 C 1339.21 453.81 1347.51 453.11 1355.84 452.86 C 1364.42 467.62 1372.96 482.41 1381.59 497.14 C 1388.22 481.55 1395.17 466.10 1401.74 450.49 Z" />
<path fill="#e9eaec" opacity="1.00" d=" M 1168.96 452.28 C 1176.44 451.99 1183.92 451.53 1191.41 451.14 C 1193.30 487.41 1195.25 523.68 1197.09 559.95 C 1189.58 560.23 1182.08 560.83 1174.58 561.09 C 1172.73 524.82 1170.67 488.56 1168.96 452.28 Z" />
</g>
</svg>
